<svg width="24" height="30" viewBox="0 0 24 30" fill="none" xmlns="http://www.w3.org/2000/svg">
<path d="M17.633 0.341614C15.976 0.890614 14.405 1.44561 13.252 2.59161C12.099 3.73761 11.49 5.44861 11.682 7.93061C11.709 8.32561 12.144 8.64161 12.538 8.55461C14.259 8.17461 15.946 7.50861 17.138 6.27261C18.331 5.03561 18.946 3.21561 18.555 0.879614C18.456 0.337614 18.045 0.224614 17.633 0.341614ZM7.43301 8.90961C8.29301 8.90961 9.151 9.27261 10.013 9.69561C10.875 10.1176 11.708 10.6316 12.703 10.6316C13.828 10.5266 14.887 10.0456 15.766 9.68461C16.783 9.27061 17.807 8.90961 18.676 8.90961C20.246 8.90961 21.924 9.89561 22.946 10.9446C21.014 12.6246 19.379 14.5986 19.379 16.8326C19.391 19.8546 21.388 21.5076 23.496 22.9676C23.0822 24.6743 22.2984 26.2693 21.2 27.6396C20.046 29.0536 18.675 29.9216 17.62 29.9216C16.723 29.9216 15.956 29.6336 15.183 29.2976C14.411 28.9606 13.639 28.5436 12.702 28.5436C11.765 28.5436 10.93 28.9476 10.067 29.2866C9.20401 29.6256 8.33001 29.9216 7.43201 29.9216C7.03701 29.9216 6.30901 29.5946 5.52201 28.8666C4.73401 28.1386 3.88001 27.0526 3.11701 25.7446C1.59301 23.1276 0.406006 19.6066 0.406006 16.1436C0.340006 12.0166 3.85401 8.91661 7.43301 8.90961Z" fill="black"/>
</svg>
