<svg width="24" height="19" viewBox="0 0 24 19" fill="none" xmlns="http://www.w3.org/2000/svg">
<path fill-rule="evenodd" clip-rule="evenodd" d="M0.156959 0.67196C0.268144 0.562098 0.418152 0.500488 0.574459 0.500488C0.730766 0.500488 0.880774 0.562098 0.991959 0.67196L9.82096 9.09996C9.87733 9.15024 9.92244 9.21187 9.95332 9.2808C9.98421 9.34974 10.0002 9.42442 10.0002 9.49996C10.0002 9.5755 9.98421 9.65018 9.95332 9.71912C9.92244 9.78805 9.87733 9.84968 9.82096 9.89996L1.02096 18.328C0.909504 18.4372 0.759997 18.4988 0.603959 18.5C0.447836 18.4993 0.298177 18.4375 0.186959 18.328C0.130588 18.2777 0.085481 18.2161 0.0545959 18.1471C0.0237107 18.0782 0.00774466 18.0035 0.00774466 17.928C0.00774466 17.8524 0.0237107 17.7777 0.0545959 17.7088C0.085481 17.6399 0.130588 17.5782 0.186959 17.528L8.53796 9.49896L0.154959 1.46996C0.0550187 1.3608 -0.000246539 1.21807 0.000123921 1.07007C0.00049438 0.922072 0.0564735 0.779618 0.156959 0.67096V0.67196ZM14.157 0.67196C14.2681 0.562098 14.4182 0.500488 14.5745 0.500488C14.7308 0.500488 14.8808 0.562098 14.992 0.67196L23.821 9.09996C23.8773 9.15024 23.9224 9.21187 23.9533 9.2808C23.9842 9.34974 24.0002 9.42442 24.0002 9.49996C24.0002 9.5755 23.9842 9.65018 23.9533 9.71912C23.9224 9.78805 23.8773 9.84968 23.821 9.89996L15.021 18.328C14.9095 18.4372 14.76 18.4988 14.604 18.5C14.4478 18.4993 14.2982 18.4375 14.187 18.328C14.1306 18.2777 14.0855 18.2161 14.0546 18.1471C14.0237 18.0782 14.0077 18.0035 14.0077 17.928C14.0077 17.8524 14.0237 17.7777 14.0546 17.7088C14.0855 17.6399 14.1306 17.5782 14.187 17.528L22.538 9.49896L14.155 1.46996C14.055 1.3608 13.9998 1.21807 14.0001 1.07007C14.0005 0.922072 14.0565 0.779618 14.157 0.67096V0.67196Z" fill="black"/>
</svg>
